<svg width="22" height="20" viewBox="0 0 22 20" fill="none" xmlns="http://www.w3.org/2000/svg">
<path d="M9.75 18.75H8.75C4.979 18.75 3.093 18.75 1.922 17.578C0.751 16.406 0.75 14.521 0.75 10.75V8.75C0.75 4.979 0.75 3.093 1.922 1.922C3.094 0.751 4.979 0.75 8.75 0.75H12.75C16.521 0.75 18.407 0.75 19.578 1.922C20.749 3.094 20.75 4.979 20.75 8.75" stroke="white" stroke-opacity="0.71" stroke-width="1.5" stroke-linecap="round"/>
<path d="M11.75 14.75C11.75 12.864 11.75 11.922 12.336 11.336C12.922 10.75 13.864 10.75 15.75 10.75H16.75C18.636 10.75 19.578 10.75 20.164 11.336C20.75 11.922 20.75 12.864 20.75 14.75C20.75 16.636 20.75 17.578 20.164 18.164C19.578 18.75 18.636 18.75 16.75 18.75H15.75C13.864 18.75 12.922 18.75 12.336 18.164C11.75 17.578 11.75 16.636 11.75 14.75Z" stroke="white" stroke-opacity="0.71" stroke-width="1.5"/>
<path d="M6.25 5.25V8.25M6.25 5.25H9.25M6.25 5.25L10.25 9.25" stroke="white" stroke-opacity="0.71" stroke-width="1.5" stroke-linecap="round" stroke-linejoin="round"/>
</svg>
