<svg width="16" height="16" viewBox="0 0 16 16" fill="none" xmlns="http://www.w3.org/2000/svg">
<path d="M15 8C15 11.2998 15 12.9497 13.9745 13.9745C12.9504 15 11.2998 15 8 15C4.7002 15 3.0503 15 2.0248 13.9745C1 12.9504 1 11.2998 1 8C1 4.7002 1 3.0503 2.0248 2.0248C3.051 1 4.7002 1 8 1" stroke="white" stroke-width="1.5" stroke-linecap="round"/>
<path opacity="0.5" d="M1 8.35002L2.2264 7.27692C2.5338 7.00817 2.93182 6.86625 3.3399 6.8799C3.74799 6.89354 4.13564 7.06173 4.4244 7.35042L7.4274 10.3534C7.66043 10.5864 7.96819 10.7297 8.29648 10.7581C8.62478 10.7866 8.95259 10.6983 9.2222 10.5088L9.4315 10.3618C9.82042 10.0887 10.2905 9.95552 10.7649 9.98412C11.2393 10.0127 11.6899 10.2014 12.0432 10.5193L14.3 12.55" stroke="white" stroke-width="1.5" stroke-linecap="round"/>
<path d="M12.5934 1.6545L12.8853 1.3626C13.1185 1.13455 13.4323 1.00768 13.7585 1.00951C14.0847 1.01134 14.397 1.14173 14.6276 1.37239C14.8583 1.60304 14.9887 1.91534 14.9905 2.24153C14.9923 2.56772 14.8654 2.88147 14.6374 3.1147L14.3455 3.4066M12.5934 1.6545C12.5934 1.6545 12.6298 2.2754 13.1772 2.8228C13.7246 3.3702 14.3455 3.4066 14.3455 3.4066M12.5934 1.6545L9.9089 4.339C9.7269 4.521 9.6359 4.612 9.5589 4.7121C9.46663 4.83045 9.38731 4.95834 9.3223 5.0936C9.2677 5.2084 9.2271 5.3302 9.1459 5.5738L8.8855 6.355M14.3455 3.4066L11.661 6.0911C11.479 6.2731 11.388 6.3641 11.2879 6.4411C11.1696 6.53337 11.0417 6.61269 10.9064 6.6777C10.7916 6.7323 10.6698 6.7729 10.4262 6.8541L9.645 7.1145M8.8855 6.355L8.7168 6.8604C8.69721 6.91926 8.6944 6.98241 8.70869 7.04278C8.72297 7.10314 8.7538 7.15834 8.7977 7.20217C8.8416 7.246 8.89685 7.27673 8.95724 7.29092C9.01763 7.30511 9.08078 7.30219 9.1396 7.2825L9.645 7.1145M8.8855 6.355L9.645 7.1145" stroke="white" stroke-width="1.5"/>
</svg>
