<svg width="21" height="17" viewBox="0 0 21 17" fill="none" xmlns="http://www.w3.org/2000/svg">
<path d="M1.03479 10.0049C0.684855 9.4219 0.5 8.75477 0.5 8.07485C0.5 7.39493 0.684855 6.72781 1.03479 6.14485C1.14233 5.96537 1.28623 5.81037 1.45724 5.68982C1.62826 5.56926 1.8226 5.48582 2.02779 5.44485L3.72079 5.10585C3.82175 5.08586 3.91281 5.03186 3.97879 4.95285L6.04679 2.46985C7.22879 1.04985 7.82079 0.340851 8.34779 0.531851C8.87479 0.722851 8.87679 1.64685 8.87679 3.49485V12.6569C8.87679 14.5039 8.87679 15.4269 8.34879 15.6189C7.82179 15.8089 7.22979 15.0999 6.04779 13.6809L3.97679 11.1969C3.91107 11.118 3.82039 11.0641 3.71979 11.0439L2.02679 10.7049C1.8216 10.6639 1.62726 10.5804 1.45624 10.4599C1.28523 10.3393 1.14233 10.1843 1.03479 10.0049Z" stroke="white"/>
<path d="M13.4131 4.53885C14.3461 5.47184 14.8725 6.73582 14.8776 8.05528C14.8826 9.37475 14.3659 10.6427 13.4401 11.5828M17.5341 2.41785C19.0269 3.91051 19.8692 5.93273 19.8775 8.04378C19.8857 10.1548 19.0592 12.1836 17.5781 13.6878" stroke="white" stroke-linecap="round"/>
</svg>
