<svg width="20" height="17" viewBox="0 0 20 17" fill="none" xmlns="http://www.w3.org/2000/svg">
<path d="M16.5 0.5H3.40909C2.63755 0.5 1.89761 0.806493 1.35205 1.35205C0.806492 1.89761 0.5 2.63755 0.5 3.40909V10.6818C0.5 11.4534 0.806492 12.1933 1.35205 12.7389C1.89761 13.2844 2.63755 13.5909 3.40909 13.5909H11.4091L15.7727 16.5V13.5909H16.5C17.2715 13.5909 18.0115 13.2844 18.557 12.7389C19.1026 12.1933 19.4091 11.4534 19.4091 10.6818V3.40909C19.4091 2.63755 19.1026 1.89761 18.557 1.35205C18.0115 0.806493 17.2715 0.5 16.5 0.5Z" stroke="white" stroke-linecap="round" stroke-linejoin="round"/>
<path d="M5.59126 7.77268C5.59126 7.96557 5.51464 8.15055 5.37825 8.28694C5.24186 8.42333 5.05688 8.49996 4.86399 8.49996C4.67111 8.49996 4.48612 8.42333 4.34973 8.28694C4.21334 8.15055 4.13672 7.96557 4.13672 7.77268C4.13672 7.5798 4.21334 7.39481 4.34973 7.25842C4.48612 7.12203 4.67111 7.04541 4.86399 7.04541C5.05688 7.04541 5.24186 7.12203 5.37825 7.25842C5.51464 7.39481 5.59126 7.5798 5.59126 7.77268ZM9.9549 7.77268C9.9549 7.96557 9.87828 8.15055 9.74189 8.28694C9.6055 8.42333 9.42051 8.49996 9.22763 8.49996C9.03474 8.49996 8.84976 8.42333 8.71337 8.28694C8.57698 8.15055 8.50035 7.96557 8.50035 7.77268C8.50035 7.5798 8.57698 7.39481 8.71337 7.25842C8.84976 7.12203 9.03474 7.04541 9.22763 7.04541C9.42051 7.04541 9.6055 7.12203 9.74189 7.25842C9.87828 7.39481 9.9549 7.5798 9.9549 7.77268ZM14.3185 7.77268C14.3185 7.96557 14.2419 8.15055 14.1055 8.28694C13.9691 8.42333 13.7841 8.49996 13.5913 8.49996C13.3984 8.49996 13.2134 8.42333 13.077 8.28694C12.9406 8.15055 12.864 7.96557 12.864 7.77268C12.864 7.5798 12.9406 7.39481 13.077 7.25842C13.2134 7.12203 13.3984 7.04541 13.5913 7.04541C13.7841 7.04541 13.9691 7.12203 14.1055 7.25842C14.2419 7.39481 14.3185 7.5798 14.3185 7.77268Z" stroke="white" stroke-linecap="round" stroke-linejoin="round"/>
</svg>
