<svg width="32" height="31" viewBox="0 0 32 31" fill="none" xmlns="http://www.w3.org/2000/svg">
<circle cx="19" cy="18" r="13" fill="#A3F219"/>
<mask id="mask0_4276_588" style="mask-type:alpha" maskUnits="userSpaceOnUse" x="0" y="0" width="30" height="30">
<rect width="30" height="30" fill="#D9D9D9"/>
</mask>
<g mask="url(#mask0_4276_588)">
<path d="M15 28.75C12.6667 28.75 10.5208 28.2188 8.5625 27.1562C6.60417 26.0938 5 24.6771 3.75 22.9062V26.25H1.25V18.75H8.75V21.25H5.65625C6.65625 22.75 7.97396 23.9583 9.60938 24.875C11.2448 25.7917 13.0417 26.25 15 26.25C16.5625 26.25 18.026 25.9531 19.3906 25.3594C20.7552 24.7656 21.9427 23.9635 22.9531 22.9531C23.9635 21.9427 24.7656 20.7552 25.3594 19.3906C25.9531 18.026 26.25 16.5625 26.25 15H28.75C28.75 16.8958 28.3906 18.6771 27.6719 20.3438C26.9531 22.0104 25.9688 23.4688 24.7188 24.7188C23.4688 25.9688 22.0104 26.9531 20.3438 27.6719C18.6771 28.3906 16.8958 28.75 15 28.75ZM1.25 15C1.25 13.1042 1.60938 11.3229 2.32812 9.65625C3.04688 7.98958 4.03125 6.53125 5.28125 5.28125C6.53125 4.03125 7.98958 3.04688 9.65625 2.32812C11.3229 1.60938 13.1042 1.25 15 1.25C17.3333 1.25 19.4792 1.78125 21.4375 2.84375C23.3958 3.90625 25 5.32292 26.25 7.09375V3.75H28.75V11.25H21.25V8.75H24.3438C23.3438 7.25 22.026 6.04167 20.3906 5.125C18.7552 4.20833 16.9583 3.75 15 3.75C13.4375 3.75 11.974 4.04688 10.6094 4.64062C9.24479 5.23438 8.05729 6.03646 7.04688 7.04688C6.03646 8.05729 5.23438 9.24479 4.64062 10.6094C4.04688 11.974 3.75 13.4375 3.75 15H1.25ZM15 22.5C15.4375 22.5 15.8073 22.349 16.1094 22.0469C16.4115 21.7448 16.5625 21.375 16.5625 20.9375C16.5625 20.5 16.4115 20.125 16.1094 19.8125C15.8073 19.5 15.4375 19.3438 15 19.3438C14.5625 19.3438 14.1927 19.4948 13.8906 19.7969C13.5885 20.099 13.4375 20.4688 13.4375 20.9062C13.4375 21.3438 13.5885 21.7188 13.8906 22.0312C14.1927 22.3438 14.5625 22.5 15 22.5ZM13.875 17.75H16.1562C16.1562 17 16.2448 16.4375 16.4219 16.0625C16.599 15.6875 16.9583 15.2292 17.5 14.6875C18.2292 13.9583 18.7135 13.3698 18.9531 12.9219C19.1927 12.474 19.3125 11.9375 19.3125 11.3125C19.3125 10.1458 18.8958 9.21875 18.0625 8.53125C17.2292 7.84375 16.2083 7.5 15 7.5C13.9583 7.5 13.0625 7.77083 12.3125 8.3125C11.5625 8.85417 11.0208 9.625 10.6875 10.625L12.75 11.5C12.8958 10.9583 13.1719 10.5104 13.5781 10.1562C13.9844 9.80208 14.4583 9.625 15 9.625C15.5625 9.625 16.0365 9.78646 16.4219 10.1094C16.8073 10.4323 17 10.8646 17 11.4062C17 11.7604 16.9167 12.1146 16.75 12.4688C16.5833 12.8229 16.2292 13.2396 15.6875 13.7188C15 14.3229 14.526 14.9115 14.2656 15.4844C14.0052 16.0573 13.875 16.8125 13.875 17.75Z" fill="#1C1B1F"/>
</g>
</svg>
