<svg width="35" height="35" viewBox="0 0 35 35" fill="none" xmlns="http://www.w3.org/2000/svg">
<mask id="mask0_4256_727" style="mask-type:alpha" maskUnits="userSpaceOnUse" x="0" y="0" width="35" height="35">
<rect width="35" height="35" fill="#D9D9D9"/>
</mask>
<g mask="url(#mask0_4256_727)">
<path d="M26.9792 29.8357L22.3126 25.1233C21.5834 25.7123 20.7449 26.1787 19.797 26.5223C18.849 26.8659 17.8404 27.0377 16.7709 27.0377C14.1216 27.0377 11.8794 26.1112 10.0444 24.2581C8.20928 22.405 7.29175 20.1408 7.29175 17.4655C7.29175 14.7902 8.20928 12.526 10.0444 10.6729C11.8794 8.81985 14.1216 7.89331 16.7709 7.89331C19.4202 7.89331 21.6624 8.81985 23.4975 10.6729C25.3325 12.526 26.2501 14.7902 26.2501 17.4655C26.2501 18.5455 26.0799 19.564 25.7397 20.5213C25.3994 21.4785 24.9376 22.3252 24.3542 23.0616L29.0209 27.774L26.9792 29.8357ZM16.7709 24.0924C18.5938 24.0924 20.1433 23.4481 21.4194 22.1596C22.6954 20.871 23.3334 19.3063 23.3334 17.4655C23.3334 15.6247 22.6954 14.06 21.4194 12.7715C20.1433 11.4829 18.5938 10.8386 16.7709 10.8386C14.948 10.8386 13.3985 11.4829 12.1225 12.7715C10.8464 14.06 10.2084 15.6247 10.2084 17.4655C10.2084 19.3063 10.8464 20.871 12.1225 22.1596C13.3985 23.4481 14.948 24.0924 16.7709 24.0924Z" fill="#1C1B1F"/>
</g>
<path d="M11 17.5C11 14.4624 13.4624 12 16.5 12" stroke="#37B900"/>
</svg>
