<svg width="35" height="37" viewBox="0 0 35 37" fill="none" xmlns="http://www.w3.org/2000/svg">
<mask id="mask0_4256_716" style="mask-type:alpha" maskUnits="userSpaceOnUse" x="0" y="5" width="32" height="32">
<rect y="5" width="32" height="32" fill="#D9D9D9"/>
</mask>
<g mask="url(#mask0_4256_716)">
<path d="M2.66675 34.3333V10.3333C2.66675 9.6 2.92786 8.97222 3.45008 8.45C3.9723 7.92778 4.60008 7.66667 5.33341 7.66667H18.8001C18.7112 8.11111 18.6667 8.55556 18.6667 9C18.6667 9.44444 18.7112 9.88889 18.8001 10.3333H5.33341V27.8333L6.86675 26.3333H26.6667V15.5333C27.1779 15.4222 27.6556 15.2722 28.1001 15.0833C28.5445 14.8944 28.9556 14.6444 29.3334 14.3333V26.3333C29.3334 27.0667 29.0723 27.6944 28.5501 28.2167C28.0279 28.7389 27.4001 29 26.6667 29H8.00008L2.66675 34.3333ZM25.3334 13C24.2223 13 23.2779 12.6111 22.5001 11.8333C21.7223 11.0556 21.3334 10.1111 21.3334 9C21.3334 7.88889 21.7223 6.94444 22.5001 6.16667C23.2779 5.38889 24.2223 5 25.3334 5C26.4445 5 27.389 5.38889 28.1667 6.16667C28.9445 6.94444 29.3334 7.88889 29.3334 9C29.3334 10.1111 28.9445 11.0556 28.1667 11.8333C27.389 12.6111 26.4445 13 25.3334 13Z" fill="#1C1B1F"/>
</g>
<circle cx="27" cy="8" r="8" fill="#FC4747"/>
<path d="M27.4854 4.72727V12H26.6048V5.65057H26.5621L24.7866 6.82955V5.93466L26.6048 4.72727H27.4854Z" fill="white"/>
</svg>
