<svg width="30" height="30" viewBox="0 0 30 30" fill="none" xmlns="http://www.w3.org/2000/svg">
<rect x="5" y="15" width="23" height="12" fill="#A3F219"/>
<mask id="mask0_4276_583" style="mask-type:alpha" maskUnits="userSpaceOnUse" x="0" y="0" width="30" height="30">
<rect width="30" height="30" fill="#D9D9D9"/>
</mask>
<g mask="url(#mask0_4276_583)">
<path d="M13.25 20.0625L22.0625 11.25L20.3125 9.5L13.25 16.5625L9.6875 13L7.9375 14.75L13.25 20.0625ZM6.25 26.25C5.5625 26.25 4.97396 26.0052 4.48438 25.5156C3.99479 25.026 3.75 24.4375 3.75 23.75V6.25C3.75 5.5625 3.99479 4.97396 4.48438 4.48438C4.97396 3.99479 5.5625 3.75 6.25 3.75H11.5C11.7708 3 12.224 2.39583 12.8594 1.9375C13.4948 1.47917 14.2083 1.25 15 1.25C15.7917 1.25 16.5052 1.47917 17.1406 1.9375C17.776 2.39583 18.2292 3 18.5 3.75H23.75C24.4375 3.75 25.026 3.99479 25.5156 4.48438C26.0052 4.97396 26.25 5.5625 26.25 6.25V23.75C26.25 24.4375 26.0052 25.026 25.5156 25.5156C25.026 26.0052 24.4375 26.25 23.75 26.25H6.25ZM6.25 23.75H23.75V6.25H6.25V23.75ZM15 5.3125C15.2708 5.3125 15.4948 5.22396 15.6719 5.04688C15.849 4.86979 15.9375 4.64583 15.9375 4.375C15.9375 4.10417 15.849 3.88021 15.6719 3.70312C15.4948 3.52604 15.2708 3.4375 15 3.4375C14.7292 3.4375 14.5052 3.52604 14.3281 3.70312C14.151 3.88021 14.0625 4.10417 14.0625 4.375C14.0625 4.64583 14.151 4.86979 14.3281 5.04688C14.5052 5.22396 14.7292 5.3125 15 5.3125Z" fill="#1C1B1F"/>
</g>
</svg>
