<svg width="28" height="28" viewBox="0 0 28 28" fill="none" xmlns="http://www.w3.org/2000/svg">
<mask id="mask0_4256_732" style="mask-type:alpha" maskUnits="userSpaceOnUse" x="0" y="0" width="28" height="28">
<rect width="28" height="28" fill="#D9D9D9"/>
</mask>
<g mask="url(#mask0_4256_732)">
<path d="M8.16667 25.3096V22.9534H12.8333V19.3012C11.8806 19.0852 11.0299 18.6778 10.2812 18.0789C9.53264 17.4801 8.98333 16.729 8.63333 15.8258C7.175 15.6491 5.95486 15.006 4.97292 13.8966C3.99097 12.7872 3.5 11.4864 3.5 9.9941V8.81598C3.5 8.16802 3.72847 7.61332 4.18542 7.15189C4.64236 6.69046 5.19167 6.45975 5.83333 6.45975H8.16667V4.10352H19.8333V6.45975H22.1667C22.8083 6.45975 23.3576 6.69046 23.8146 7.15189C24.2715 7.61332 24.5 8.16802 24.5 8.81598V9.9941C24.5 11.4864 24.009 12.7872 23.0271 13.8966C22.0451 15.006 20.825 15.6491 19.3667 15.8258C19.0167 16.729 18.4674 17.4801 17.7187 18.0789C16.9701 18.6778 16.1194 19.0852 15.1667 19.3012V22.9534H19.8333V25.3096H8.16667ZM8.16667 13.2928V8.81598H5.83333V9.9941C5.83333 10.7402 6.04722 11.4128 6.475 12.0116C6.90278 12.6105 7.46667 13.0376 8.16667 13.2928ZM14 17.0628C14.9722 17.0628 15.7986 16.7192 16.4792 16.032C17.1597 15.3447 17.5 14.5102 17.5 13.5285V6.45975H10.5V13.5285C10.5 14.5102 10.8403 15.3447 11.5208 16.032C12.2014 16.7192 13.0278 17.0628 14 17.0628ZM19.8333 13.2928C20.5333 13.0376 21.0972 12.6105 21.525 12.0116C21.9528 11.4128 22.1667 10.7402 22.1667 9.9941V8.81598H19.8333V13.2928Z" fill="#1C1B1F"/>
</g>
<path d="M14.389 7.77783L15.0001 9.65884H16.978L15.3779 10.8214L15.9891 12.7024L14.389 11.5399L12.7889 12.7024L13.4001 10.8214L11.8 9.65884H13.7778L14.389 7.77783Z" fill="#37B900"/>
</svg>
