<svg width="36" height="36" viewBox="0 0 36 36" fill="none" xmlns="http://www.w3.org/2000/svg">
<circle cx="22.8001" cy="22.8" r="13.2" fill="#A3F219"/>
<mask id="mask0_4276_603" style="mask-type:alpha" maskUnits="userSpaceOnUse" x="0" y="0" width="36" height="36">
<rect width="36" height="36" fill="#D9D9D9"/>
</mask>
<g mask="url(#mask0_4276_603)">
<path d="M18.075 28.5L22.35 24.2625L18.075 20.025L16.5 21.6L18.1125 23.2125C17.4125 23.2375 16.7313 23.125 16.0688 22.875C15.4063 22.625 14.8125 22.2375 14.2875 21.7125C13.7875 21.2125 13.4062 20.6375 13.1438 19.9875C12.8813 19.3375 12.75 18.6875 12.75 18.0375C12.75 17.6125 12.8063 17.1875 12.9188 16.7625C13.0312 16.3375 13.1875 15.925 13.3875 15.525L11.7375 13.875C11.3125 14.5 11 15.1625 10.8 15.8625C10.6 16.5625 10.5 17.275 10.5 18C10.5 18.95 10.6875 19.8875 11.0625 20.8125C11.4375 21.7375 11.9875 22.5625 12.7125 23.2875C13.4375 24.0125 14.25 24.5562 15.15 24.9188C16.05 25.2812 16.975 25.475 17.925 25.5L16.5 26.925L18.075 28.5ZM24.2625 22.125C24.6875 21.5 25 20.8375 25.2 20.1375C25.4 19.4375 25.5 18.725 25.5 18C25.5 17.05 25.3188 16.1063 24.9562 15.1688C24.5938 14.2313 24.05 13.4 23.325 12.675C22.6 11.95 21.7812 11.4125 20.8688 11.0625C19.9563 10.7125 19.025 10.5375 18.075 10.5375L19.5 9.075L17.925 7.5L13.65 11.7375L17.925 15.975L19.5 14.4L17.85 12.75C18.525 12.75 19.2125 12.8813 19.9125 13.1438C20.6125 13.4062 21.2125 13.7875 21.7125 14.2875C22.2125 14.7875 22.5938 15.3625 22.8563 16.0125C23.1187 16.6625 23.25 17.3125 23.25 17.9625C23.25 18.3875 23.1938 18.8125 23.0812 19.2375C22.9688 19.6625 22.8125 20.075 22.6125 20.475L24.2625 22.125ZM18 33C15.925 33 13.975 32.6062 12.15 31.8187C10.325 31.0312 8.7375 29.9625 7.3875 28.6125C6.0375 27.2625 4.96875 25.675 4.18125 23.85C3.39375 22.025 3 20.075 3 18C3 15.925 3.39375 13.975 4.18125 12.15C4.96875 10.325 6.0375 8.7375 7.3875 7.3875C8.7375 6.0375 10.325 4.96875 12.15 4.18125C13.975 3.39375 15.925 3 18 3C20.075 3 22.025 3.39375 23.85 4.18125C25.675 4.96875 27.2625 6.0375 28.6125 7.3875C29.9625 8.7375 31.0312 10.325 31.8187 12.15C32.6062 13.975 33 15.925 33 18C33 20.075 32.6062 22.025 31.8187 23.85C31.0312 25.675 29.9625 27.2625 28.6125 28.6125C27.2625 29.9625 25.675 31.0312 23.85 31.8187C22.025 32.6062 20.075 33 18 33ZM18 30C21.35 30 24.1875 28.8375 26.5125 26.5125C28.8375 24.1875 30 21.35 30 18C30 14.65 28.8375 11.8125 26.5125 9.4875C24.1875 7.1625 21.35 6 18 6C14.65 6 11.8125 7.1625 9.4875 9.4875C7.1625 11.8125 6 14.65 6 18C6 21.35 7.1625 24.1875 9.4875 26.5125C11.8125 28.8375 14.65 30 18 30Z" fill="#1C1B1F"/>
</g>
</svg>
