<svg width="36" height="36" viewBox="0 0 36 36" fill="none" xmlns="http://www.w3.org/2000/svg">
<path d="M3 13.5H33V29.5C33 30.6046 32.1046 31.5 31 31.5H5C3.89543 31.5 3 30.6046 3 29.5V13.5Z" fill="#8AEF14"/>
<mask id="mask0_4276_885" style="mask-type:alpha" maskUnits="userSpaceOnUse" x="0" y="0" width="36" height="36">
<rect width="36" height="36" fill="#D9D9D9"/>
</mask>
<g mask="url(#mask0_4276_885)">
<path d="M7.5 31.5C6.675 31.5 5.96875 31.2063 5.38125 30.6188C4.79375 30.0312 4.5 29.325 4.5 28.5V7.5C4.5 6.675 4.79375 5.96875 5.38125 5.38125C5.96875 4.79375 6.675 4.5 7.5 4.5H13.8C14.125 3.6 14.6687 2.875 15.4312 2.325C16.1938 1.775 17.05 1.5 18 1.5C18.95 1.5 19.8063 1.775 20.5688 2.325C21.3313 2.875 21.875 3.6 22.2 4.5H28.5C29.325 4.5 30.0312 4.79375 30.6188 5.38125C31.2063 5.96875 31.5 6.675 31.5 7.5V28.5C31.5 29.325 31.2063 30.0312 30.6188 30.6188C30.0312 31.2063 29.325 31.5 28.5 31.5H7.5ZM7.5 28.5H28.5V7.5H7.5V28.5ZM10.5 25.5H21V22.5H10.5V25.5ZM10.5 19.5H25.5V16.5H10.5V19.5ZM10.5 13.5H25.5V10.5H10.5V13.5ZM18 6.375C18.325 6.375 18.5938 6.26875 18.8063 6.05625C19.0188 5.84375 19.125 5.575 19.125 5.25C19.125 4.925 19.0188 4.65625 18.8063 4.44375C18.5938 4.23125 18.325 4.125 18 4.125C17.675 4.125 17.4063 4.23125 17.1938 4.44375C16.9813 4.65625 16.875 4.925 16.875 5.25C16.875 5.575 16.9813 5.84375 17.1938 6.05625C17.4063 6.26875 17.675 6.375 18 6.375Z" fill="#1C1B1F"/>
</g>
</svg>
