<svg width="39" height="39" viewBox="0 0 39 39" fill="none" xmlns="http://www.w3.org/2000/svg">
<rect x="4.875" y="19.5" width="27.625" height="16.25" fill="#8AEF14"/>
<mask id="mask0_4276_869" style="mask-type:alpha" maskUnits="userSpaceOnUse" x="0" y="0" width="39" height="39">
<rect width="39" height="39" fill="#D9D9D9"/>
</mask>
<g mask="url(#mask0_4276_869)">
<path d="M8.125 32.5V29.25H30.875V32.5H8.125ZM8.125 26.8125L6.05313 13.7719C5.99896 13.7719 5.93802 13.7786 5.87031 13.7922C5.8026 13.8057 5.74167 13.8125 5.6875 13.8125C5.01042 13.8125 4.4349 13.5755 3.96094 13.1016C3.48698 12.6276 3.25 12.0521 3.25 11.375C3.25 10.6979 3.48698 10.1224 3.96094 9.64844C4.4349 9.17448 5.01042 8.9375 5.6875 8.9375C6.36458 8.9375 6.9401 9.17448 7.41406 9.64844C7.88802 10.1224 8.125 10.6979 8.125 11.375C8.125 11.5646 8.10469 11.7406 8.06406 11.9031C8.02344 12.0656 7.97604 12.2146 7.92188 12.35L13 14.625L18.0781 7.67813C17.7802 7.46146 17.5365 7.17708 17.3469 6.825C17.1573 6.47292 17.0625 6.09375 17.0625 5.6875C17.0625 5.01042 17.2995 4.4349 17.7734 3.96094C18.2474 3.48698 18.8229 3.25 19.5 3.25C20.1771 3.25 20.7526 3.48698 21.2266 3.96094C21.7005 4.4349 21.9375 5.01042 21.9375 5.6875C21.9375 6.09375 21.8427 6.47292 21.6531 6.825C21.4635 7.17708 21.2198 7.46146 20.9219 7.67813L26 14.625L31.0781 12.35C31.024 12.2146 30.9766 12.0656 30.9359 11.9031C30.8953 11.7406 30.875 11.5646 30.875 11.375C30.875 10.6979 31.112 10.1224 31.5859 9.64844C32.0599 9.17448 32.6354 8.9375 33.3125 8.9375C33.9896 8.9375 34.5651 9.17448 35.0391 9.64844C35.513 10.1224 35.75 10.6979 35.75 11.375C35.75 12.0521 35.513 12.6276 35.0391 13.1016C34.5651 13.5755 33.9896 13.8125 33.3125 13.8125C33.2583 13.8125 33.1974 13.8057 33.1297 13.7922C33.062 13.7786 33.001 13.7719 32.9469 13.7719L30.875 26.8125H8.125ZM10.8875 23.5625H28.1125L29.1687 16.7781L24.9031 18.6469L19.5 11.2125L14.0969 18.6469L9.83125 16.7781L10.8875 23.5625Z" fill="#1C1B1F"/>
</g>
</svg>
