<svg width="39" height="39" viewBox="0 0 39 39" fill="none" xmlns="http://www.w3.org/2000/svg">
<rect y="16.25" width="35.75" height="17.875" fill="#8AEF14"/>
<mask id="mask0_4276_906" style="mask-type:alpha" maskUnits="userSpaceOnUse" x="0" y="0" width="39" height="39">
<rect width="39" height="39" fill="#D9D9D9"/>
</mask>
<g mask="url(#mask0_4276_906)">
<path d="M6.5 32.5C5.60625 32.5 4.84115 32.1818 4.20469 31.5453C3.56823 30.9089 3.25 30.1437 3.25 29.25V9.75C3.25 8.85625 3.56823 8.09115 4.20469 7.45469C4.84115 6.81823 5.60625 6.5 6.5 6.5H26C26.8937 6.5 27.6589 6.81823 28.2953 7.45469C28.9318 8.09115 29.25 8.85625 29.25 9.75V17.0625L35.75 10.5625V28.4375L29.25 21.9375V29.25C29.25 30.1437 28.9318 30.9089 28.2953 31.5453C27.6589 32.1818 26.8937 32.5 26 32.5H6.5ZM6.5 29.25H26V9.75H6.5V29.25Z" fill="#1C1B1F"/>
</g>
</svg>
