<svg width="44" height="44" viewBox="0 0 44 44" fill="none" xmlns="http://www.w3.org/2000/svg">
<path d="M39.0923 19.4342L37.8773 25.1908L38.0705 31.0057L32.9108 34.4272L28.6639 38.8282L22.5819 37.9105L16.3827 38.3196L12.9412 33.6002L8.42108 29.7777L9.63606 24.0211L9.44284 18.2062L14.6026 14.7847L18.8495 10.3837L24.9315 11.3014L31.1307 10.8923L34.5722 15.6117L39.0923 19.4342Z" fill="#A3F219"/>
<mask id="mask0_4276_593" style="mask-type:alpha" maskUnits="userSpaceOnUse" x="0" y="0" width="41" height="41">
<rect width="40.4278" height="40.4278" fill="#D9D9D9"/>
</mask>
<g mask="url(#mask0_4276_593)">
<path d="M20.2141 28.6363C20.6914 28.6363 21.0915 28.4749 21.4143 28.152C21.7372 27.8292 21.8986 27.4291 21.8986 26.9518C21.8986 26.4746 21.7372 26.0745 21.4143 25.7516C21.0915 25.4288 20.6914 25.2674 20.2141 25.2674C19.7369 25.2674 19.3368 25.4288 19.0139 25.7516C18.6911 26.0745 18.5296 26.4746 18.5296 26.9518C18.5296 27.4291 18.6911 27.8292 19.0139 28.152C19.3368 28.4749 19.7369 28.6363 20.2141 28.6363ZM18.5296 21.8984H21.8986V11.7914H18.5296V21.8984ZM13.8973 35.3743L5.05371 26.5307V13.897L13.8973 5.05347H26.531L35.3745 13.897V26.5307L26.531 35.3743H13.8973ZM15.3291 32.0053H25.0991L32.0056 25.0989V15.3289L25.0991 8.42245H15.3291L8.42269 15.3289V25.0989L15.3291 32.0053Z" fill="#1C1B1F"/>
</g>
</svg>
